<?xml version="1.0" encoding="UTF-8"?><svg xmlns="http://www.w3.org/2000/svg" viewBox="0 0 204.61 204.61"><defs><style>.d{fill:none;}.e{stroke:#231f20;stroke-miterlimit:10;stroke-width:.5px;}</style></defs><g id="a"/><g id="b"><g id="c"><path d="M182.93,37.6l-.09,13.35,.09-13.35Z"/><polyline points="184.47 37.6 182.63 37.6 182.58 46.1 184.42 46.1"/><polyline points="183.45 52.84 191.17 46.1 183.43 46.1"/><polyline points="183.5 52.84 175.78 46.1 183.52 46.1"/><path d="M184.13,147.44l.09-13.34-.09,13.34Z"/><polyline points="182.6 147.09 184.44 147.09 184.48 138.6 182.64 138.6"/><polyline points="183.37 131.78 175.55 138.6 183.39 138.6"/><polyline points="183.32 131.78 191.14 138.6 183.3 138.6"/><path d="M2.61,59.76v6.05c-4.57,3.63,139.42,7.9,199.5,7.68v-8.76c-46.7,.18-114.05-1.55-199.5-4.97Z"/><line class="e" x1="2.61" y1="57.85" x2="202.11" y2="57.85"/><path d="M2.72,151.85v6.04c-4.57,3.63,139.34,7.9,199.4,7.68v-11.87c-46.72-1.82-114.02,.12-199.4-1.85Z"/><line class="e" x1="2.72" y1="151.55" x2="202.11" y2="151.55"/><rect class="d" width="204.61" height="204.61"/></g></g></svg>