<?xml version="1.0" encoding="UTF-8"?><svg xmlns="http://www.w3.org/2000/svg" viewBox="0 0 49.27 49.48"><defs><style>.d{fill:none;}.e{fill:#231f20;font-family:MyriadPro-Regular, Myriad Pro;font-size:4.37px;}</style></defs><g id="a"/><g id="b"><g id="c"><g><text class="e" transform="translate(6.25 25.81)"><tspan x="0" y="0">0.009</tspan></text><text class="e" transform="translate(31.84 25.81)"><tspan x="0" y="0">0.011</tspan></text><path class="d" d="M49.27,0h-11.97s.04,.06,.04,.09v.08c0,.17-.14,.31-.31,.31,.17,0,.31,.14,.31,.31v.08c0,.17-.14,.31-.31,.31,.17,0,.31,.14,.31,.31v.08c0,.17-.14,.31-.31,.31,.17,0,.31,.14,.31,.31v.08c0,.17-.14,.31-.31,.31,.17,0,.31,.14,.31,.31v.08c0,.17-.14,.31-.31,.31,.17,0,.31,.14,.31,.31v.08c0,.17-.14,.31-.31,.31,.17,0,.31,.14,.31,.31v.08c0,.17-.14,.31-.31,.31,.17,0,.31,.14,.31,.31v.08c0,.17-.14,.31-.31,.31,.17,0,.31,.14,.31,.31v.08c0,.17-.14,.31-.31,.31,.17,0,.31,.14,.31,.31v.08c0,.17-.14,.31-.31,.31,.17,0,.31,.14,.31,.31v.08c0,.17-.14,.31-.31,.31,.17,0,.31,.14,.31,.31v.08c0,.17-.14,.31-.31,.31,.17,0,.31,.14,.31,.31v.08c0,.17-.14,.31-.31,.31,.17,0,.31,.14,.31,.31v.08c0,.17-.14,.31-.31,.31,.17,0,.31,.14,.31,.31v.08c0,.17-.14,.31-.31,.31,.17,0,.31,.14,.31,.31v.08c0,.17-.14,.31-.31,.31,.17,0,.31,.14,.31,.31v.08c0,.17-.14,.31-.31,.31,.17,0,.31,.14,.31,.31v.08c0,.17-.14,.31-.31,.31,.17,0,.31,.14,.31,.31v.08c0,.17-.14,.31-.31,.31,.17,0,.31,.14,.31,.31v.08c0,.17-.14,.31-.31,.31,.17,0,.31,.14,.31,.31v.08c0,.17-.14,.31-.31,.31,.17,0,.31,.14,.31,.31v.08c0,.17-.14,.31-.31,.31,.17,0,.31,.14,.31,.31v.08c0,.17-.14,.31-.31,.31,.17,0,.31,.14,.31,.31v.08c0,.17-.14,.31-.31,.31,.17,0,.31,.14,.31,.31v.08c0,.17-.14,.31-.31,.31,.17,0,.31,.14,.31,.31v.08c0,.17-.14,.31-.31,.31,.17,0,.31,.14,.31,.31v.08c0,.17-.14,.31-.31,.31,.17,0,.31,.14,.31,.31v.08c0,.17-.14,.31-.31,.31,.17,0,.31,.14,.31,.31v.08c0,.17-.14,.31-.31,.31,.17,0,.31,.14,.31,.31v.08c0,.17-.14,.31-.31,.31h-1.08c-.17,0-.31-.14-.31-.31v-.08c0-.17,.14-.31,.31-.31-.17,0-.31-.14-.31-.31v-.08c0-.17,.14-.31,.31-.31-.17,0-.31-.14-.31-.31v-.08c0-.17,.14-.31,.31-.31-.17,0-.31-.14-.31-.31v-.08c0-.17,.14-.31,.31-.31-.17,0-.31-.14-.31-.31v-.08c0-.17,.14-.31,.31-.31-.17,0-.31-.14-.31-.31v-.08c0-.17,.14-.31,.31-.31-.17,0-.31-.14-.31-.31v-.08c0-.17,.14-.31,.31-.31-.17,0-.31-.14-.31-.31v-.08c0-.17,.14-.31,.31-.31-.17,0-.31-.14-.31-.31v-.08c0-.17,.14-.31,.31-.31-.17,0-.31-.14-.31-.31v-.08c0-.17,.14-.31,.31-.31-.17,0-.31-.14-.31-.31v-.08c0-.17,.14-.31,.31-.31-.17,0-.31-.14-.31-.31v-.08c0-.17,.14-.31,.31-.31-.17,0-.31-.14-.31-.31v-.08c0-.17,.14-.31,.31-.31-.17,0-.31-.14-.31-.31v-.08c0-.17,.14-.31,.31-.31-.17,0-.31-.14-.31-.31v-.08c0-.17,.14-.31,.31-.31-.17,0-.31-.14-.31-.31v-.08c0-.17,.14-.31,.31-.31-.17,0-.31-.14-.31-.31v-.08c0-.17,.14-.31,.31-.31-.17,0-.31-.14-.31-.31v-.08c0-.17,.14-.31,.31-.31-.17,0-.31-.14-.31-.31v-.08c0-.17,.14-.31,.31-.31-.17,0-.31-.14-.31-.31v-.08c0-.17,.14-.31,.31-.31-.17,0-.31-.14-.31-.31v-.08c0-.17,.14-.31,.31-.31-.17,0-.31-.14-.31-.31v-.08c0-.17,.14-.31,.31-.31-.17,0-.31-.14-.31-.31v-.08c0-.17,.14-.31,.31-.31-.17,0-.31-.14-.31-.31v-.08c0-.17,.14-.31,.31-.31-.17,0-.31-.14-.31-.31v-.08c0-.17,.14-.31,.31-.31-.17,0-.31-.14-.31-.31v-.08c0-.17,.14-.31,.31-.31-.17,0-.31-.14-.31-.31v-.08c0-.17,.14-.31,.31-.31-.17,0-.31-.14-.31-.31v-.08c0-.17,.14-.31,.31-.31-.17,0-.31-.14-.31-.31v-.08c0-.17,.14-.31,.31-.31-.17,0-.31-.14-.31-.31V.09s.03-.06,.04-.09H11.55s-.06,.04-.1,.04c.13,0,.24,.11,.24,.24s-.11,.24-.24,.24c.13,0,.24,.11,.24,.24s-.11,.24-.24,.24c.13,0,.24,.11,.24,.24s-.11,.24-.24,.24c.13,0,.24,.11,.24,.24s-.11,.24-.24,.24c.13,0,.24,.11,.24,.24s-.11,.24-.24,.24c.13,0,.24,.11,.24,.24s-.11,.24-.24,.24c.13,0,.24,.11,.24,.24s-.11,.24-.24,.24c.13,0,.24,.11,.24,.24s-.11,.24-.24,.24c.13,0,.24,.11,.24,.24s-.11,.24-.24,.24c.13,0,.24,.11,.24,.24s-.11,.24-.24,.24c.13,0,.24,.11,.24,.24s-.11,.24-.24,.24c.13,0,.24,.11,.24,.24s-.11,.24-.24,.24c.13,0,.24,.11,.24,.24s-.11,.24-.24,.24c.13,0,.24,.11,.24,.24s-.11,.24-.24,.24c.13,0,.24,.11,.24,.24s-.11,.24-.24,.24c.13,0,.24,.11,.24,.24s-.11,.24-.24,.24c.13,0,.24,.11,.24,.24s-.11,.24-.24,.24c.13,0,.24,.11,.24,.24s-.11,.24-.24,.24c.13,0,.24,.11,.24,.24s-.11,.24-.24,.24c.13,0,.24,.11,.24,.24s-.11,.24-.24,.24c.13,0,.24,.11,.24,.24s-.11,.24-.24,.24c.13,0,.24,.11,.24,.24s-.11,.24-.24,.24c.13,0,.24,.11,.24,.24s-.11,.24-.24,.24c.13,0,.24,.11,.24,.24s-.11,.24-.24,.24c.13,0,.24,.11,.24,.24s-.11,.24-.24,.24c.13,0,.24,.11,.24,.24s-.11,.24-.24,.24c.13,0,.24,.11,.24,.24s-.11,.24-.24,.24c.13,0,.24,.11,.24,.24s-.11,.24-.24,.24c.13,0,.24,.11,.24,.24s-.11,.24-.24,.24c.13,0,.24,.11,.24,.24s-.11,.24-.24,.24c.13,0,.24,.11,.24,.24s-.11,.24-.24,.24c.13,0,.24,.11,.24,.24s-.11,.24-.24,.24c.13,0,.24,.11,.24,.24s-.11,.24-.24,.24c.13,0,.24,.11,.24,.24s-.11,.24-.24,.24c.13,0,.24,.11,.24,.24s-.11,.24-.24,.24c.13,0,.24,.11,.24,.24s-.11,.24-.24,.24c.13,0,.24,.11,.24,.24s-.11,.24-.24,.24c.13,0,.24,.11,.24,.24s-.11,.24-.24,.24c.13,0,.24,.11,.24,.24s-.11,.24-.24,.24c.13,0,.24,.11,.24,.24s-.11,.24-.24,.24c.13,0,.24,.11,.24,.24s-.11,.24-.24,.24c.13,0,.24,.11,.24,.24s-.11,.24-.24,.24c.13,0,.24,.11,.24,.24s-.11,.24-.24,.24c.13,0,.24,.11,.24,.24s-.11,.24-.24,.24h-.67c-.13,0-.24-.11-.24-.24s.11-.24,.24-.24c-.13,0-.24-.11-.24-.24s.11-.24,.24-.24c-.13,0-.24-.11-.24-.24s.11-.24,.24-.24c-.13,0-.24-.11-.24-.24s.11-.24,.24-.24c-.13,0-.24-.11-.24-.24s.11-.24,.24-.24c-.13,0-.24-.11-.24-.24s.11-.24,.24-.24c-.13,0-.24-.11-.24-.24s.11-.24,.24-.24c-.13,0-.24-.11-.24-.24s.11-.24,.24-.24c-.13,0-.24-.11-.24-.24s.11-.24,.24-.24c-.13,0-.24-.11-.24-.24s.11-.24,.24-.24c-.13,0-.24-.11-.24-.24s.11-.24,.24-.24c-.13,0-.24-.11-.24-.24s.11-.24,.24-.24c-.13,0-.24-.11-.24-.24s.11-.24,.24-.24c-.13,0-.24-.11-.24-.24s.11-.24,.24-.24c-.13,0-.24-.11-.24-.24s.11-.24,.24-.24c-.13,0-.24-.11-.24-.24s.11-.24,.24-.24c-.13,0-.24-.11-.24-.24s.11-.24,.24-.24c-.13,0-.24-.11-.24-.24s.11-.24,.24-.24c-.13,0-.24-.11-.24-.24s.11-.24,.24-.24c-.13,0-.24-.11-.24-.24s.11-.24,.24-.24c-.13,0-.24-.11-.24-.24s.11-.24,.24-.24c-.13,0-.24-.11-.24-.24s.11-.24,.24-.24c-.13,0-.24-.11-.24-.24s.11-.24,.24-.24c-.13,0-.24-.11-.24-.24s.11-.24,.24-.24c-.13,0-.24-.11-.24-.24s.11-.24,.24-.24c-.13,0-.24-.11-.24-.24s.11-.24,.24-.24c-.13,0-.24-.11-.24-.24s.11-.24,.24-.24c-.13,0-.24-.11-.24-.24s.11-.24,.24-.24c-.13,0-.24-.11-.24-.24s.11-.24,.24-.24c-.13,0-.24-.11-.24-.24s.11-.24,.24-.24c-.13,0-.24-.11-.24-.24s.11-.24,.24-.24c-.13,0-.24-.11-.24-.24s.11-.24,.24-.24c-.13,0-.24-.11-.24-.24s.11-.24,.24-.24c-.13,0-.24-.11-.24-.24s.11-.24,.24-.24c-.13,0-.24-.11-.24-.24s.11-.24,.24-.24c-.13,0-.24-.11-.24-.24s.11-.24,.24-.24c-.13,0-.24-.11-.24-.24s.11-.24,.24-.24c-.13,0-.24-.11-.24-.24s.11-.24,.24-.24c-.13,0-.24-.11-.24-.24s.11-.24,.24-.24c-.13,0-.24-.11-.24-.24s.11-.24,.24-.24c-.13,0-.24-.11-.24-.24s.11-.24,.24-.24c-.13,0-.24-.11-.24-.24s.11-.24,.24-.24c-.13,0-.24-.11-.24-.24s.11-.24,.24-.24c-.13,0-.24-.11-.24-.24s.11-.24,.24-.24c-.04,0-.07-.03-.1-.04H0V49.27H10.6s-.01-.02-.01-.03c0-.13,.11-.24,.24-.24-.13,0-.24-.11-.24-.24s.11-.24,.24-.24c-.13,0-.24-.11-.24-.24s.11-.24,.24-.24c-.13,0-.24-.11-.24-.24s.11-.24,.24-.24c-.13,0-.24-.11-.24-.24s.11-.24,.24-.24c-.13,0-.24-.11-.24-.24s.11-.24,.24-.24c-.13,0-.24-.11-.24-.24s.11-.24,.24-.24c-.13,0-.24-.11-.24-.24s.11-.24,.24-.24c-.13,0-.24-.11-.24-.24s.11-.24,.24-.24c-.13,0-.24-.11-.24-.24s.11-.24,.24-.24c-.13,0-.24-.11-.24-.24s.11-.24,.24-.24c-.13,0-.24-.11-.24-.24s.11-.24,.24-.24c-.13,0-.24-.11-.24-.24s.11-.24,.24-.24c-.13,0-.24-.11-.24-.24s.11-.24,.24-.24c-.13,0-.24-.11-.24-.24s.11-.24,.24-.24c-.13,0-.24-.11-.24-.24s.11-.24,.24-.24c-.13,0-.24-.11-.24-.24s.11-.24,.24-.24c-.13,0-.24-.11-.24-.24s.11-.24,.24-.24c-.13,0-.24-.11-.24-.24s.11-.24,.24-.24c-.13,0-.24-.11-.24-.24s.11-.24,.24-.24c-.13,0-.24-.11-.24-.24s.11-.24,.24-.24c-.13,0-.24-.11-.24-.24s.11-.24,.24-.24c-.13,0-.24-.11-.24-.24s.11-.24,.24-.24c-.13,0-.24-.11-.24-.24s.11-.24,.24-.24c-.13,0-.24-.11-.24-.24s.11-.24,.24-.24c-.13,0-.24-.11-.24-.24s.11-.24,.24-.24c-.13,0-.24-.11-.24-.24s.11-.24,.24-.24c-.13,0-.24-.11-.24-.24s.11-.24,.24-.24c-.13,0-.24-.11-.24-.24s.11-.24,.24-.24c-.13,0-.24-.11-.24-.24s.11-.24,.24-.24c-.13,0-.24-.11-.24-.24s.11-.24,.24-.24c-.13,0-.24-.11-.24-.24s.11-.24,.24-.24c-.13,0-.24-.11-.24-.24s.11-.24,.24-.24c-.13,0-.24-.11-.24-.24s.11-.24,.24-.24c-.13,0-.24-.11-.24-.24s.11-.24,.24-.24c-.13,0-.24-.11-.24-.24s.11-.24,.24-.24c-.13,0-.24-.11-.24-.24s.11-.24,.24-.24c-.13,0-.24-.11-.24-.24s.11-.24,.24-.24c-.13,0-.24-.11-.24-.24s.11-.24,.24-.24c-.13,0-.24-.11-.24-.24s.11-.24,.24-.24c-.13,0-.24-.11-.24-.24s.11-.24,.24-.24c-.13,0-.24-.11-.24-.24s.11-.24,.24-.24c-.13,0-.24-.11-.24-.24s.11-.24,.24-.24c-.13,0-.24-.11-.24-.24s.11-.24,.24-.24c-.13,0-.24-.11-.24-.24s.11-.24,.24-.24h.67c.13,0,.24,.11,.24,.24s-.11,.24-.24,.24c.13,0,.24,.11,.24,.24s-.11,.24-.24,.24c.13,0,.24,.11,.24,.24s-.11,.24-.24,.24c.13,0,.24,.11,.24,.24s-.11,.24-.24,.24c.13,0,.24,.11,.24,.24s-.11,.24-.24,.24c.13,0,.24,.11,.24,.24s-.11,.24-.24,.24c.13,0,.24,.11,.24,.24s-.11,.24-.24,.24c.13,0,.24,.11,.24,.24s-.11,.24-.24,.24c.13,0,.24,.11,.24,.24s-.11,.24-.24,.24c.13,0,.24,.11,.24,.24s-.11,.24-.24,.24c.13,0,.24,.11,.24,.24s-.11,.24-.24,.24c.13,0,.24,.11,.24,.24s-.11,.24-.24,.24c.13,0,.24,.11,.24,.24s-.11,.24-.24,.24c.13,0,.24,.11,.24,.24s-.11,.24-.24,.24c.13,0,.24,.11,.24,.24s-.11,.24-.24,.24c.13,0,.24,.11,.24,.24s-.11,.24-.24,.24c.13,0,.24,.11,.24,.24s-.11,.24-.24,.24c.13,0,.24,.11,.24,.24s-.11,.24-.24,.24c.13,0,.24,.11,.24,.24s-.11,.24-.24,.24c.13,0,.24,.11,.24,.24s-.11,.24-.24,.24c.13,0,.24,.11,.24,.24s-.11,.24-.24,.24c.13,0,.24,.11,.24,.24s-.11,.24-.24,.24c.13,0,.24,.11,.24,.24s-.11,.24-.24,.24c.13,0,.24,.11,.24,.24s-.11,.24-.24,.24c.13,0,.24,.11,.24,.24s-.11,.24-.24,.24c.13,0,.24,.11,.24,.24s-.11,.24-.24,.24c.13,0,.24,.11,.24,.24s-.11,.24-.24,.24c.13,0,.24,.11,.24,.24s-.11,.24-.24,.24c.13,0,.24,.11,.24,.24s-.11,.24-.24,.24c.13,0,.24,.11,.24,.24s-.11,.24-.24,.24c.13,0,.24,.11,.24,.24s-.11,.24-.24,.24c.13,0,.24,.11,.24,.24s-.11,.24-.24,.24c.13,0,.24,.11,.24,.24s-.11,.24-.24,.24c.13,0,.24,.11,.24,.24s-.11,.24-.24,.24c.13,0,.24,.11,.24,.24s-.11,.24-.24,.24c.13,0,.24,.11,.24,.24s-.11,.24-.24,.24c.13,0,.24,.11,.24,.24s-.11,.24-.24,.24c.13,0,.24,.11,.24,.24s-.11,.24-.24,.24c.13,0,.24,.11,.24,.24s-.11,.24-.24,.24c.13,0,.24,.11,.24,.24s-.11,.24-.24,.24c.13,0,.24,.11,.24,.24s-.11,.24-.24,.24c.13,0,.24,.11,.24,.24s-.11,.24-.24,.24c.13,0,.24,.11,.24,.24s-.11,.24-.24,.24c.13,0,.24,.11,.24,.24s-.11,.24-.24,.24c.13,0,.24,.11,.24,.24,0,0,0,.02-.01,.03h24.3c-.17,0-.31-.14-.31-.31v-.08c0-.17,.14-.31,.31-.31-.17,0-.31-.14-.31-.31v-.08c0-.17,.14-.31,.31-.31-.17,0-.31-.14-.31-.31v-.08c0-.17,.14-.31,.31-.31-.17,0-.31-.14-.31-.31v-.08c0-.17,.14-.31,.31-.31-.17,0-.31-.14-.31-.31v-.08c0-.17,.14-.31,.31-.31-.17,0-.31-.14-.31-.31v-.08c0-.17,.14-.31,.31-.31-.17,0-.31-.14-.31-.31v-.08c0-.17,.14-.31,.31-.31-.17,0-.31-.14-.31-.31v-.08c0-.17,.14-.31,.31-.31-.17,0-.31-.14-.31-.31v-.08c0-.17,.14-.31,.31-.31-.17,0-.31-.14-.31-.31v-.08c0-.17,.14-.31,.31-.31-.17,0-.31-.14-.31-.31v-.08c0-.17,.14-.31,.31-.31-.17,0-.31-.14-.31-.31v-.08c0-.17,.14-.31,.31-.31-.17,0-.31-.14-.31-.31v-.08c0-.17,.14-.31,.31-.31-.17,0-.31-.14-.31-.31v-.08c0-.17,.14-.31,.31-.31-.17,0-.31-.14-.31-.31v-.08c0-.17,.14-.31,.31-.31-.17,0-.31-.14-.31-.31v-.08c0-.17,.14-.31,.31-.31-.17,0-.31-.14-.31-.31v-.08c0-.17,.14-.31,.31-.31-.17,0-.31-.14-.31-.31v-.08c0-.17,.14-.31,.31-.31-.17,0-.31-.14-.31-.31v-.08c0-.17,.14-.31,.31-.31-.17,0-.31-.14-.31-.31v-.08c0-.17,.14-.31,.31-.31-.17,0-.31-.14-.31-.31v-.08c0-.17,.14-.31,.31-.31-.17,0-.31-.14-.31-.31v-.08c0-.17,.14-.31,.31-.31-.17,0-.31-.14-.31-.31v-.08c0-.17,.14-.31,.31-.31-.17,0-.31-.14-.31-.31v-.08c0-.17,.14-.31,.31-.31-.17,0-.31-.14-.31-.31v-.08c0-.17,.14-.31,.31-.31-.17,0-.31-.14-.31-.31v-.08c0-.17,.14-.31,.31-.31-.17,0-.31-.14-.31-.31v-.08c0-.17,.14-.31,.31-.31-.17,0-.31-.14-.31-.31v-.08c0-.17,.14-.31,.31-.31-.17,0-.31-.14-.31-.31v-.08c0-.17,.14-.31,.31-.31-.17,0-.31-.14-.31-.31v-.08c0-.17,.14-.31,.31-.31h1.08c.17,0,.31,.14,.31,.31v.08c0,.17-.14,.31-.31,.31,.17,0,.31,.14,.31,.31v.08c0,.17-.14,.31-.31,.31,.17,0,.31,.14,.31,.31v.08c0,.17-.14,.31-.31,.31,.17,0,.31,.14,.31,.31v.08c0,.17-.14,.31-.31,.31,.17,0,.31,.14,.31,.31v.08c0,.17-.14,.31-.31,.31,.17,0,.31,.14,.31,.31v.08c0,.17-.14,.31-.31,.31,.17,0,.31,.14,.31,.31v.08c0,.17-.14,.31-.31,.31,.17,0,.31,.14,.31,.31v.08c0,.17-.14,.31-.31,.31,.17,0,.31,.14,.31,.31v.08c0,.17-.14,.31-.31,.31,.17,0,.31,.14,.31,.31v.08c0,.17-.14,.31-.31,.31,.17,0,.31,.14,.31,.31v.08c0,.17-.14,.31-.31,.31,.17,0,.31,.14,.31,.31v.08c0,.17-.14,.31-.31,.31,.17,0,.31,.14,.31,.31v.08c0,.17-.14,.31-.31,.31,.17,0,.31,.14,.31,.31v.08c0,.17-.14,.31-.31,.31,.17,0,.31,.14,.31,.31v.08c0,.17-.14,.31-.31,.31,.17,0,.31,.14,.31,.31v.08c0,.17-.14,.31-.31,.31,.17,0,.31,.14,.31,.31v.08c0,.17-.14,.31-.31,.31,.17,0,.31,.14,.31,.31v.08c0,.17-.14,.31-.31,.31,.17,0,.31,.14,.31,.31v.08c0,.17-.14,.31-.31,.31,.17,0,.31,.14,.31,.31v.08c0,.17-.14,.31-.31,.31,.17,0,.31,.14,.31,.31v.08c0,.17-.14,.31-.31,.31,.17,0,.31,.14,.31,.31v.08c0,.17-.14,.31-.31,.31,.17,0,.31,.14,.31,.31v.08c0,.17-.14,.31-.31,.31,.17,0,.31,.14,.31,.31v.08c0,.17-.14,.31-.31,.31,.17,0,.31,.14,.31,.31v.08c0,.17-.14,.31-.31,.31,.17,0,.31,.14,.31,.31v.08c0,.17-.14,.31-.31,.31,.17,0,.31,.14,.31,.31v.08c0,.17-.14,.31-.31,.31,.17,0,.31,.14,.31,.31v.08c0,.17-.14,.31-.31,.31,.17,0,.31,.14,.31,.31v.08c0,.17-.14,.31-.31,.31,.17,0,.31,.14,.31,.31v.08c0,.17-.14,.31-.31,.31h12.17V0ZM30.44,24.66h-.03l-5.52,6.33v-5.6l-7-.04v-1.52l7,.04v-5.57l5.52,6.33h.03l-.02,.02,.02,.02Z"/><rect x="35.71" y="47.17" width="1.7" height=".7" rx=".31" ry=".31"/><rect x="35.71" y="46.47" width="1.7" height=".7" rx=".31" ry=".31"/><rect x="35.71" y="45.77" width="1.7" height=".7" rx=".31" ry=".31"/><rect x="35.71" y="45.07" width="1.7" height=".7" rx=".31" ry=".31"/><rect x="35.71" y="44.37" width="1.7" height=".7" rx=".31" ry=".31"/><rect x="35.71" y="43.67" width="1.7" height=".7" rx=".31" ry=".31"/><rect x="35.71" y="42.97" width="1.7" height=".7" rx=".31" ry=".31"/><rect x="35.71" y="42.27" width="1.7" height=".7" rx=".31" ry=".31"/><rect x="35.71" y="41.57" width="1.7" height=".7" rx=".31" ry=".31"/><rect x="35.71" y="48.57" width="1.7" height=".7" rx=".31" ry=".31"/><rect x="35.71" y="47.87" width="1.7" height=".7" rx=".31" ry=".31"/><path d="M11.73,48.3c0-.13-.11-.24-.24-.24h-.67c-.13,0-.24,.11-.24,.24s.11,.24,.24,.24h.67c.13,0,.24-.11,.24-.24Z"/><path d="M11.73,47.83c0-.13-.11-.24-.24-.24h-.67c-.13,0-.24,.11-.24,.24s.11,.24,.24,.24h.67c.13,0,.24-.11,.24-.24Z"/><path d="M11.73,47.36c0-.13-.11-.24-.24-.24h-.67c-.13,0-.24,.11-.24,.24s.11,.24,.24,.24h.67c.13,0,.24-.11,.24-.24Z"/><path d="M11.73,46.89c0-.13-.11-.24-.24-.24h-.67c-.13,0-.24,.11-.24,.24s.11,.24,.24,.24h.67c.13,0,.24-.11,.24-.24Z"/><path d="M11.73,46.42c0-.13-.11-.24-.24-.24h-.67c-.13,0-.24,.11-.24,.24s.11,.24,.24,.24h.67c.13,0,.24-.11,.24-.24Z"/><path d="M11.73,45.95c0-.13-.11-.24-.24-.24h-.67c-.13,0-.24,.11-.24,.24s.11,.24,.24,.24h.67c.13,0,.24-.11,.24-.24Z"/><path d="M11.73,45.47c0-.13-.11-.24-.24-.24h-.67c-.13,0-.24,.11-.24,.24s.11,.24,.24,.24h.67c.13,0,.24-.11,.24-.24Z"/><path d="M11.73,45c0-.13-.11-.24-.24-.24h-.67c-.13,0-.24,.11-.24,.24s.11,.24,.24,.24h.67c.13,0,.24-.11,.24-.24Z"/><path d="M11.73,44.53c0-.13-.11-.24-.24-.24h-.67c-.13,0-.24,.11-.24,.24s.11,.24,.24,.24h.67c.13,0,.24-.11,.24-.24Z"/><path d="M11.5,49.01h-.67c-.13,0-.24,.11-.24,.24,0,0,0,.02,.01,.03h1.12s.01-.02,.01-.03c0-.13-.11-.24-.24-.24Z"/><path d="M11.73,48.78c0-.13-.11-.24-.24-.24h-.67c-.13,0-.24,.11-.24,.24s.11,.24,.24,.24h.67c.13,0,.24-.11,.24-.24Z"/><path d="M11.73,31.32c0-.13-.11-.24-.24-.24h-.67c-.13,0-.24,.11-.24,.24s.11,.24,.24,.24h.67c.13,0,.24-.11,.24-.24Z"/><path d="M11.73,30.85c0-.13-.11-.24-.24-.24h-.67c-.13,0-.24,.11-.24,.24s.11,.24,.24,.24h.67c.13,0,.24-.11,.24-.24Z"/><path d="M11.73,30.38c0-.13-.11-.24-.24-.24h-.67c-.13,0-.24,.11-.24,.24s.11,.24,.24,.24h.67c.13,0,.24-.11,.24-.24Z"/><path d="M11.73,29.91c0-.13-.11-.24-.24-.24h-.67c-.13,0-.24,.11-.24,.24s.11,.24,.24,.24h.67c.13,0,.24-.11,.24-.24Z"/><path d="M11.73,29.43c0-.13-.11-.24-.24-.24h-.67c-.13,0-.24,.11-.24,.24s.11,.24,.24,.24h.67c.13,0,.24-.11,.24-.24Z"/><path d="M11.73,28.96c0-.13-.11-.24-.24-.24h-.67c-.13,0-.24,.11-.24,.24s.11,.24,.24,.24h.67c.13,0,.24-.11,.24-.24Z"/><path d="M11.73,28.49c0-.13-.11-.24-.24-.24h-.67c-.13,0-.24,.11-.24,.24s.11,.24,.24,.24h.67c.13,0,.24-.11,.24-.24Z"/><path d="M11.73,32.74c0-.13-.11-.24-.24-.24h-.67c-.13,0-.24,.11-.24,.24s.11,.24,.24,.24h.67c.13,0,.24-.11,.24-.24Z"/><path d="M11.73,32.26c0-.13-.11-.24-.24-.24h-.67c-.13,0-.24,.11-.24,.24s.11,.24,.24,.24h.67c.13,0,.24-.11,.24-.24Z"/><path d="M11.73,31.79c0-.13-.11-.24-.24-.24h-.67c-.13,0-.24,.11-.24,.24s.11,.24,.24,.24h.67c.13,0,.24-.11,.24-.24Z"/><path d="M11.73,36.98c0-.13-.11-.24-.24-.24h-.67c-.13,0-.24,.11-.24,.24s.11,.24,.24,.24h.67c.13,0,.24-.11,.24-.24Z"/><path d="M11.73,36.51c0-.13-.11-.24-.24-.24h-.67c-.13,0-.24,.11-.24,.24s.11,.24,.24,.24h.67c.13,0,.24-.11,.24-.24Z"/><path d="M11.73,36.04c0-.13-.11-.24-.24-.24h-.67c-.13,0-.24,.11-.24,.24s.11,.24,.24,.24h.67c.13,0,.24-.11,.24-.24Z"/><path d="M11.73,35.57c0-.13-.11-.24-.24-.24h-.67c-.13,0-.24,.11-.24,.24s.11,.24,.24,.24h.67c.13,0,.24-.11,.24-.24Z"/><path d="M11.73,35.09c0-.13-.11-.24-.24-.24h-.67c-.13,0-.24,.11-.24,.24s.11,.24,.24,.24h.67c.13,0,.24-.11,.24-.24Z"/><path d="M11.73,34.62c0-.13-.11-.24-.24-.24h-.67c-.13,0-.24,.11-.24,.24s.11,.24,.24,.24h.67c.13,0,.24-.11,.24-.24Z"/><path d="M11.73,34.15c0-.13-.11-.24-.24-.24h-.67c-.13,0-.24,.11-.24,.24s.11,.24,.24,.24h.67c.13,0,.24-.11,.24-.24Z"/><path d="M11.73,33.68c0-.13-.11-.24-.24-.24h-.67c-.13,0-.24,.11-.24,.24s.11,.24,.24,.24h.67c.13,0,.24-.11,.24-.24Z"/><path d="M11.73,33.21c0-.13-.11-.24-.24-.24h-.67c-.13,0-.24,.11-.24,.24s.11,.24,.24,.24h.67c.13,0,.24-.11,.24-.24Z"/><path d="M11.73,38.4c0-.13-.11-.24-.24-.24h-.67c-.13,0-.24,.11-.24,.24s.11,.24,.24,.24h.67c.13,0,.24-.11,.24-.24Z"/><path d="M11.73,37.93c0-.13-.11-.24-.24-.24h-.67c-.13,0-.24,.11-.24,.24s.11,.24,.24,.24h.67c.13,0,.24-.11,.24-.24Z"/><path d="M11.73,37.45c0-.13-.11-.24-.24-.24h-.67c-.13,0-.24,.11-.24,.24s.11,.24,.24,.24h.67c.13,0,.24-.11,.24-.24Z"/><path d="M11.73,42.64c0-.13-.11-.24-.24-.24h-.67c-.13,0-.24,.11-.24,.24s.11,.24,.24,.24h.67c.13,0,.24-.11,.24-.24Z"/><path d="M11.73,42.17c0-.13-.11-.24-.24-.24h-.67c-.13,0-.24,.11-.24,.24s.11,.24,.24,.24h.67c.13,0,.24-.11,.24-.24Z"/><path d="M11.73,41.7c0-.13-.11-.24-.24-.24h-.67c-.13,0-.24,.11-.24,.24s.11,.24,.24,.24h.67c.13,0,.24-.11,.24-.24Z"/><path d="M11.73,41.23c0-.13-.11-.24-.24-.24h-.67c-.13,0-.24,.11-.24,.24s.11,.24,.24,.24h.67c.13,0,.24-.11,.24-.24Z"/><path d="M11.73,40.76c0-.13-.11-.24-.24-.24h-.67c-.13,0-.24,.11-.24,.24s.11,.24,.24,.24h.67c.13,0,.24-.11,.24-.24Z"/><path d="M11.73,40.28c0-.13-.11-.24-.24-.24h-.67c-.13,0-.24,.11-.24,.24s.11,.24,.24,.24h.67c.13,0,.24-.11,.24-.24Z"/><path d="M11.73,39.81c0-.13-.11-.24-.24-.24h-.67c-.13,0-.24,.11-.24,.24s.11,.24,.24,.24h.67c.13,0,.24-.11,.24-.24Z"/><path d="M11.73,39.34c0-.13-.11-.24-.24-.24h-.67c-.13,0-.24,.11-.24,.24s.11,.24,.24,.24h.67c.13,0,.24-.11,.24-.24Z"/><path d="M11.73,38.87c0-.13-.11-.24-.24-.24h-.67c-.13,0-.24,.11-.24,.24s.11,.24,.24,.24h.67c.13,0,.24-.11,.24-.24Z"/><path d="M11.73,44.06c0-.13-.11-.24-.24-.24h-.67c-.13,0-.24,.11-.24,.24s.11,.24,.24,.24h.67c.13,0,.24-.11,.24-.24Z"/><path d="M11.73,43.59c0-.13-.11-.24-.24-.24h-.67c-.13,0-.24,.11-.24,.24s.11,.24,.24,.24h.67c.13,0,.24-.11,.24-.24Z"/><path d="M11.73,43.12c0-.13-.11-.24-.24-.24h-.67c-.13,0-.24,.11-.24,.24s.11,.24,.24,.24h.67c.13,0,.24-.11,.24-.24Z"/><path d="M10.53,2.17c0,.13,.11,.24,.24,.24h.67c.13,0,.24-.11,.24-.24s-.11-.24-.24-.24h-.67c-.13,0-.24,.11-.24,.24Z"/><path d="M10.53,1.69c0,.13,.11,.24,.24,.24h.67c.13,0,.24-.11,.24-.24s-.11-.24-.24-.24h-.67c-.13,0-.24,.11-.24,.24Z"/><path d="M10.53,1.22c0,.13,.11,.24,.24,.24h.67c.13,0,.24-.11,.24-.24s-.11-.24-.24-.24h-.67c-.13,0-.24,.11-.24,.24Z"/><path d="M10.53,.75c0,.13,.11,.24,.24,.24h.67c.13,0,.24-.11,.24-.24s-.11-.24-.24-.24h-.67c-.13,0-.24,.11-.24,.24Z"/><path d="M10.53,.28c0,.13,.11,.24,.24,.24h.67c.13,0,.24-.11,.24-.24s-.11-.24-.24-.24h-.67c-.13,0-.24,.11-.24,.24Z"/><path d="M11.44,.04s.07-.03,.1-.04h-.88s.06,.04,.1,.04h.67Z"/><path d="M10.53,3.58c0,.13,.11,.24,.24,.24h.67c.13,0,.24-.11,.24-.24s-.11-.24-.24-.24h-.67c-.13,0-.24,.11-.24,.24Z"/><path d="M10.53,3.11c0,.13,.11,.24,.24,.24h.67c.13,0,.24-.11,.24-.24s-.11-.24-.24-.24h-.67c-.13,0-.24,.11-.24,.24Z"/><path d="M10.53,2.64c0,.13,.11,.24,.24,.24h.67c.13,0,.24-.11,.24-.24s-.11-.24-.24-.24h-.67c-.13,0-.24,.11-.24,.24Z"/><path d="M10.53,7.83c0,.13,.11,.24,.24,.24h.67c.13,0,.24-.11,.24-.24s-.11-.24-.24-.24h-.67c-.13,0-.24,.11-.24,.24Z"/><path d="M10.53,7.36c0,.13,.11,.24,.24,.24h.67c.13,0,.24-.11,.24-.24s-.11-.24-.24-.24h-.67c-.13,0-.24,.11-.24,.24Z"/><path d="M10.53,6.88c0,.13,.11,.24,.24,.24h.67c.13,0,.24-.11,.24-.24s-.11-.24-.24-.24h-.67c-.13,0-.24,.11-.24,.24Z"/><path d="M10.53,6.41c0,.13,.11,.24,.24,.24h.67c.13,0,.24-.11,.24-.24s-.11-.24-.24-.24h-.67c-.13,0-.24,.11-.24,.24Z"/><path d="M10.53,5.94c0,.13,.11,.24,.24,.24h.67c.13,0,.24-.11,.24-.24s-.11-.24-.24-.24h-.67c-.13,0-.24,.11-.24,.24Z"/><path d="M10.53,5.47c0,.13,.11,.24,.24,.24h.67c.13,0,.24-.11,.24-.24s-.11-.24-.24-.24h-.67c-.13,0-.24,.11-.24,.24Z"/><path d="M10.53,5c0,.13,.11,.24,.24,.24h.67c.13,0,.24-.11,.24-.24s-.11-.24-.24-.24h-.67c-.13,0-.24,.11-.24,.24Z"/><path d="M10.53,4.53c0,.13,.11,.24,.24,.24h.67c.13,0,.24-.11,.24-.24s-.11-.24-.24-.24h-.67c-.13,0-.24,.11-.24,.24Z"/><path d="M10.53,4.05c0,.13,.11,.24,.24,.24h.67c.13,0,.24-.11,.24-.24s-.11-.24-.24-.24h-.67c-.13,0-.24,.11-.24,.24Z"/><path d="M10.53,9.24c0,.13,.11,.24,.24,.24h.67c.13,0,.24-.11,.24-.24s-.11-.24-.24-.24h-.67c-.13,0-.24,.11-.24,.24Z"/><path d="M10.53,8.77c0,.13,.11,.24,.24,.24h.67c.13,0,.24-.11,.24-.24s-.11-.24-.24-.24h-.67c-.13,0-.24,.11-.24,.24Z"/><path d="M10.53,8.3c0,.13,.11,.24,.24,.24h.67c.13,0,.24-.11,.24-.24s-.11-.24-.24-.24h-.67c-.13,0-.24,.11-.24,.24Z"/><path d="M10.53,13.49c0,.13,.11,.24,.24,.24h.67c.13,0,.24-.11,.24-.24s-.11-.24-.24-.24h-.67c-.13,0-.24,.11-.24,.24Z"/><path d="M10.53,13.02c0,.13,.11,.24,.24,.24h.67c.13,0,.24-.11,.24-.24s-.11-.24-.24-.24h-.67c-.13,0-.24,.11-.24,.24Z"/><path d="M10.53,12.55c0,.13,.11,.24,.24,.24h.67c.13,0,.24-.11,.24-.24s-.11-.24-.24-.24h-.67c-.13,0-.24,.11-.24,.24Z"/><path d="M10.53,12.07c0,.13,.11,.24,.24,.24h.67c.13,0,.24-.11,.24-.24s-.11-.24-.24-.24h-.67c-.13,0-.24,.11-.24,.24Z"/><path d="M10.53,11.6c0,.13,.11,.24,.24,.24h.67c.13,0,.24-.11,.24-.24s-.11-.24-.24-.24h-.67c-.13,0-.24,.11-.24,.24Z"/><path d="M10.53,11.13c0,.13,.11,.24,.24,.24h.67c.13,0,.24-.11,.24-.24s-.11-.24-.24-.24h-.67c-.13,0-.24,.11-.24,.24Z"/><path d="M10.53,10.66c0,.13,.11,.24,.24,.24h.67c.13,0,.24-.11,.24-.24s-.11-.24-.24-.24h-.67c-.13,0-.24,.11-.24,.24Z"/><path d="M10.53,10.19c0,.13,.11,.24,.24,.24h.67c.13,0,.24-.11,.24-.24s-.11-.24-.24-.24h-.67c-.13,0-.24,.11-.24,.24Z"/><path d="M10.53,9.71c0,.13,.11,.24,.24,.24h.67c.13,0,.24-.11,.24-.24s-.11-.24-.24-.24h-.67c-.13,0-.24,.11-.24,.24Z"/><path d="M10.53,14.9c0,.13,.11,.24,.24,.24h.67c.13,0,.24-.11,.24-.24s-.11-.24-.24-.24h-.67c-.13,0-.24,.11-.24,.24Z"/><path d="M10.53,14.43c0,.13,.11,.24,.24,.24h.67c.13,0,.24-.11,.24-.24s-.11-.24-.24-.24h-.67c-.13,0-.24,.11-.24,.24Z"/><path d="M10.53,13.96c0,.13,.11,.24,.24,.24h.67c.13,0,.24-.11,.24-.24s-.11-.24-.24-.24h-.67c-.13,0-.24,.11-.24,.24Z"/><path d="M10.53,19.15c0,.13,.11,.24,.24,.24h.67c.13,0,.24-.11,.24-.24s-.11-.24-.24-.24h-.67c-.13,0-.24,.11-.24,.24Z"/><path d="M10.53,18.68c0,.13,.11,.24,.24,.24h.67c.13,0,.24-.11,.24-.24s-.11-.24-.24-.24h-.67c-.13,0-.24,.11-.24,.24Z"/><path d="M10.53,18.21c0,.13,.11,.24,.24,.24h.67c.13,0,.24-.11,.24-.24s-.11-.24-.24-.24h-.67c-.13,0-.24,.11-.24,.24Z"/><path d="M10.53,17.74c0,.13,.11,.24,.24,.24h.67c.13,0,.24-.11,.24-.24s-.11-.24-.24-.24h-.67c-.13,0-.24,.11-.24,.24Z"/><path d="M10.53,17.26c0,.13,.11,.24,.24,.24h.67c.13,0,.24-.11,.24-.24s-.11-.24-.24-.24h-.67c-.13,0-.24,.11-.24,.24Z"/><path d="M10.53,16.79c0,.13,.11,.24,.24,.24h.67c.13,0,.24-.11,.24-.24s-.11-.24-.24-.24h-.67c-.13,0-.24,.11-.24,.24Z"/><path d="M10.53,16.32c0,.13,.11,.24,.24,.24h.67c.13,0,.24-.11,.24-.24s-.11-.24-.24-.24h-.67c-.13,0-.24,.11-.24,.24Z"/><path d="M10.53,15.85c0,.13,.11,.24,.24,.24h.67c.13,0,.24-.11,.24-.24s-.11-.24-.24-.24h-.67c-.13,0-.24,.11-.24,.24Z"/><path d="M10.53,15.38c0,.13,.11,.24,.24,.24h.67c.13,0,.24-.11,.24-.24s-.11-.24-.24-.24h-.67c-.13,0-.24,.11-.24,.24Z"/><path d="M10.53,20.57c0,.13,.11,.24,.24,.24h.67c.13,0,.24-.11,.24-.24s-.11-.24-.24-.24h-.67c-.13,0-.24,.11-.24,.24Z"/><path d="M10.53,20.09c0,.13,.11,.24,.24,.24h.67c.13,0,.24-.11,.24-.24s-.11-.24-.24-.24h-.67c-.13,0-.24,.11-.24,.24Z"/><path d="M10.53,19.62c0,.13,.11,.24,.24,.24h.67c.13,0,.24-.11,.24-.24s-.11-.24-.24-.24h-.67c-.13,0-.24,.11-.24,.24Z"/><rect x="35.64" y="1.18" width="1.7" height=".7" rx=".31" ry=".31"/><rect x="35.64" y=".48" width="1.7" height=".7" rx=".31" ry=".31"/><path d="M35.64,.17c0,.17,.14,.31,.31,.31h1.08c.17,0,.31-.14,.31-.31V.09s-.03-.06-.04-.09h-1.62s-.04,.06-.04,.09v.08Z"/><rect x="35.64" y="3.29" width="1.7" height=".7" rx=".31" ry=".31"/><rect x="35.64" y="2.58" width="1.7" height=".7" rx=".31" ry=".31"/><rect x="35.64" y="1.88" width="1.7" height=".7" rx=".31" ry=".31"/><rect x="35.64" y="9.59" width="1.7" height=".7" rx=".31" ry=".31"/><rect x="35.64" y="8.89" width="1.7" height=".7" rx=".31" ry=".31"/><rect x="35.64" y="8.19" width="1.7" height=".7" rx=".31" ry=".31"/><rect x="35.64" y="7.49" width="1.7" height=".7" rx=".31" ry=".31"/><rect x="35.64" y="6.79" width="1.7" height=".7" rx=".31" ry=".31"/><rect x="35.64" y="6.09" width="1.7" height=".7" rx=".31" ry=".31"/><rect x="35.64" y="5.39" width="1.7" height=".7" rx=".31" ry=".31"/><rect x="35.64" y="4.69" width="1.7" height=".7" rx=".31" ry=".31"/><rect x="35.64" y="3.99" width="1.7" height=".7" rx=".31" ry=".31"/><rect x="35.64" y="11.69" width="1.7" height=".7" rx=".31" ry=".31"/><rect x="35.64" y="10.99" width="1.7" height=".7" rx=".31" ry=".31"/><rect x="35.64" y="10.29" width="1.7" height=".7" rx=".31" ry=".31"/><rect x="35.64" y="18" width="1.7" height=".7" rx=".31" ry=".31"/><rect x="35.64" y="17.3" width="1.7" height=".7" rx=".31" ry=".31"/><rect x="35.64" y="16.6" width="1.7" height=".7" rx=".31" ry=".31"/><rect x="35.64" y="15.9" width="1.7" height=".7" rx=".31" ry=".31"/><rect x="35.64" y="15.2" width="1.7" height=".7" rx=".31" ry=".31"/><rect x="35.64" y="14.5" width="1.7" height=".7" rx=".31" ry=".31"/><rect x="35.64" y="13.8" width="1.7" height=".7" rx=".31" ry=".31"/><rect x="35.64" y="13.09" width="1.7" height=".7" rx=".31" ry=".31"/><rect x="35.64" y="12.39" width="1.7" height=".7" rx=".31" ry=".31"/><rect x="35.64" y="20.1" width="1.7" height=".7" rx=".31" ry=".31"/><rect x="35.64" y="19.4" width="1.7" height=".7" rx=".31" ry=".31"/><rect x="35.64" y="18.7" width="1.7" height=".7" rx=".31" ry=".31"/><rect x="35.71" y="30.36" width="1.7" height=".7" rx=".31" ry=".31"/><rect x="35.71" y="29.66" width="1.7" height=".7" rx=".31" ry=".31"/><rect x="35.71" y="28.95" width="1.7" height=".7" rx=".31" ry=".31"/><rect x="35.71" y="28.25" width="1.7" height=".7" rx=".31" ry=".31"/><rect x="35.71" y="32.46" width="1.7" height=".7" rx=".31" ry=".31"/><rect x="35.71" y="31.76" width="1.7" height=".7" rx=".31" ry=".31"/><rect x="35.71" y="31.06" width="1.7" height=".7" rx=".31" ry=".31"/><rect x="35.71" y="38.76" width="1.7" height=".7" rx=".31" ry=".31"/><rect x="35.71" y="38.06" width="1.7" height=".7" rx=".31" ry=".31"/><rect x="35.71" y="37.36" width="1.7" height=".7" rx=".31" ry=".31"/><rect x="35.71" y="36.66" width="1.7" height=".7" rx=".31" ry=".31"/><rect x="35.71" y="35.96" width="1.7" height=".7" rx=".31" ry=".31"/><rect x="35.71" y="35.26" width="1.7" height=".7" rx=".31" ry=".31"/><rect x="35.71" y="34.56" width="1.7" height=".7" rx=".31" ry=".31"/><rect x="35.71" y="33.86" width="1.7" height=".7" rx=".31" ry=".31"/><rect x="35.71" y="33.16" width="1.7" height=".7" rx=".31" ry=".31"/><rect x="35.71" y="40.87" width="1.7" height=".7" rx=".31" ry=".31"/><rect x="35.71" y="40.17" width="1.7" height=".7" rx=".31" ry=".31"/><rect x="35.71" y="39.46" width="1.7" height=".7" rx=".31" ry=".31"/><polygon points="24.89 24.68 24.89 24.6 24.89 23.86 17.89 23.82 17.89 25.08 24.89 25.13 24.89 24.68"/><polygon points="17.89 25.08 17.89 25.34 24.89 25.38 24.89 25.13 17.89 25.08"/><polygon points="30.41 24.62 24.89 18.29 24.89 23.86 24.89 24.6 30.41 24.62"/><polygon points="30.44 24.66 30.43 24.64 30.41 24.66 30.44 24.66"/><polygon points="30.41 24.62 30.43 24.64 30.44 24.62 30.41 24.62"/><polygon points="24.89 25.13 28.89 25.16 24.89 25.13 24.89 25.38 24.89 30.98 30.41 24.66 24.89 24.68 24.89 25.13"/><polygon points="24.89 24.6 24.89 24.68 30.41 24.66 30.43 24.64 30.41 24.62 24.89 24.6"/></g></g></g></svg>