<?xml version="1.0" encoding="UTF-8"?><svg xmlns="http://www.w3.org/2000/svg" viewBox="0 0 125.34 134.96"><defs><style>.d{fill:#fff;stroke:#000;stroke-miterlimit:10;}</style></defs><g id="a"/><g id="b"><g id="c"><path class="d" d="M61.38,134.46c-12.21,0-22.88-2.78-32.01-8.33-9.13-5.55-16.22-13.29-21.28-23.22C3.03,92.99,.5,81.42,.5,68.22s2.62-25.07,7.86-35.25c5.24-10.18,12.7-18.13,22.39-23.87C40.43,3.37,51.94,.5,65.26,.5c15.17,0,27.75,3.64,37.75,10.92,9.99,7.28,16.47,17.33,19.43,30.16h-26.46c-1.97-6.04-5.55-10.76-10.73-14.16-5.18-3.39-11.84-5.09-19.98-5.09-12.95,0-22.94,4.1-29.98,12.3-7.03,8.21-10.55,19.46-10.55,33.77s3.48,25.38,10.46,33.21c6.97,7.83,16.44,11.75,28.4,11.75s20.57-3.17,26.55-9.53c5.98-6.35,9.59-14.71,10.82-25.07h-32.75v-17.76h56.62v71.24h-21.83l-1.85-17.02c-4.19,6.17-9.44,10.92-15.73,14.25-6.29,3.33-14.31,5-24.05,5Z"/><path class="d" d="M57.82,105.14V50.86h-18.55v-9.36h48.82v9.36h-18.64v54.28h-11.64Z"/></g></g></svg>