<?xml version="1.0" encoding="UTF-8"?><svg xmlns="http://www.w3.org/2000/svg" viewBox="0 0 47.91 47.91"><defs><style>.d,.e,.f,.g{fill:none;}.h{fill:#6d6e71;}.e{stroke:#000;stroke-linecap:round;stroke-linejoin:round;stroke-width:.1px;}.f{stroke:#a7a9ac;}.f,.g{stroke-miterlimit:10;stroke-width:.25px;}.g{stroke:#231f20;}</style></defs><g id="a"/><g id="b"><g id="c"><g><path d="M8.29,18.03l-3.45-.02,3.45,.02Z"/><polyline points="8.29 18.43 8.29 17.96 6.09 17.94 6.09 18.42"/><polyline points="4.35 18.17 6.09 20.17 6.09 18.16"/><polyline points="4.35 18.18 6.09 16.18 6.09 18.19"/></g><g><path d="M9.76,18.03l3.45-.02-3.45,.02Z"/><polyline points="9.76 18.43 9.76 17.96 11.96 17.94 11.96 18.42"/><polyline points="13.71 18.17 11.96 20.17 11.96 18.16"/><polyline points="13.71 18.18 11.96 16.18 11.96 18.19"/></g><rect class="d" width="47.91" height="47.91"/><path class="g" d="M47.91,20.38c-15.98,.36-17.67,1.69-18.42,10.31,.75-8.62,2.44-9.95,18.42-10.31"/><g><path class="g" d="M36.54,21.46c-4.78,.72-4.65,4.1-4.68,9.23H13.28l.04-9.49h4.88"/><path class="g" d="M36.48,21.47h.06c4.78,.71,4.65,4.09,4.68,9.22h-7.84"/></g><g><polyline class="h" points="4.98 24.56 17.87 24.56 17.87 26.86 4.98 26.86"/><path class="h" d="M4.98,21.86c-3.19,0-3.19,7.69,0,7.69"/></g><polyline class="h" points="35.14 30.5 35.14 21.89 37.94 21.89 37.94 30.5"/><path class="e" d="M12.91,28.27c-.04-1.97,.32-5.32-.35-5.06-.68-.02-.37,5.16-.69,5-.46,.3-.1-5.39-.52-5.06-.52-.1-.12,4.99-.71,5.06-.43,.17,.12-5.21-.58-5-.69-.39-.26,5.43-.89,5-.45,.21,.23-5.4-.59-4.96-.48-.26-.36,5.06-.73,4.96-.7,0-.01-5.2-.82-5-1.22-.28,.03,5.42-1.03,5-.64-.14-.95-1.3-.91-4.92"/><polyline class="f" points="5.09 21.19 5.09 31.21 41.22 31.09"/></g></g></svg>