<?xml version="1.0" encoding="UTF-8"?><svg xmlns="http://www.w3.org/2000/svg" viewBox="0 0 28.16 28.16"><defs><style>.d,.e,.f,.g,.h,.i,.j{fill:none;}.e{stroke-width:.8px;}.e,.f,.g,.h,.i,.k,.j{stroke-miterlimit:10;}.e,.f,.g,.h,.i,.j{stroke:#000;}.f,.k{stroke-width:.1px;}.g{stroke-width:.9px;}.h{stroke-width:.7px;}.i{stroke-width:.3px;}.k{fill:#6d6e71;stroke:#231f20;}.j{stroke-width:.5px;}</style></defs><g id="a"/><g id="b"><g id="c"><rect class="d" width="28.16" height="28.16"/><line class="g" y1="19.35" x2="28.16" y2="19.35"/><line class="e" y1="17.21" x2="28.16" y2="17.21"/><line class="h" y1="15.36" x2="28.16" y2="15.36"/><line class="j" y1="13.34" x2="28.16" y2="13.34"/><line class="i" y1="11.61" x2="28.16" y2="11.61"/><line class="f" y1="10.01" x2="28.16" y2="10.01"/><path class="k" d="M24.63,7.73s-.97,2.52-2.09,3.18c1.13,.66,2.09,3.18,2.09,3.18,0,0,.97-2.52,2.09-3.18-1.13-.66-2.09-3.18-2.09-3.18Z"/><path class="k" d="M19.31,13.12s-.76,1.98-1.64,2.5c.89,.52,1.64,2.5,1.64,2.5,0,0,.76-1.98,1.64-2.5-.89-.52-1.64-2.5-1.64-2.5Z"/><path class="k" d="M23.43,13.82s-.59,1.53-1.27,1.93c.68,.4,1.27,1.93,1.27,1.93,0,0,.59-1.53,1.27-1.93-.68-.4-1.27-1.93-1.27-1.93Z"/><path class="k" d="M20.44,10.07s-.47,1.22-1.01,1.54c.55,.32,1.01,1.54,1.01,1.54,0,0,.47-1.22,1.01-1.54-.55-.32-1.01-1.54-1.01-1.54Z"/></g></g></svg>