<?xml version="1.0" encoding="UTF-8"?><svg xmlns="http://www.w3.org/2000/svg" viewBox="0 0 204.61 204.61"><defs><style>.d{fill:none;}</style></defs><g id="a"/><g id="b"><g id="c"><g><path d="M114.87,143.65c-21.9,5.72-14.69,30.45,7.21,24.74"/><path d="M114.69,143.7c21.9-5.72,29.12,19.02,7.21,24.74"/><path d="M132.29,101.73h0c1.58,0,2.86,1.28,2.86,2.86v50.5h-5.73v-50.5c0-1.58,1.28-2.86,2.86-2.86Z"/></g><g><path d="M156.4,97.57c-21.9,5.72-14.69,30.45,7.21,24.74"/><path d="M156.22,97.62c21.9-5.72,29.12,19.02,7.21,24.74"/><path d="M173.82,55.65h0c1.58,0,2.86,1.28,2.86,2.86v50.5h-5.73V58.51c0-1.58,1.28-2.86,2.86-2.86Z"/></g><g><path d="M74.51,133.95c-21.9,5.72-14.69,30.45,7.21,24.74"/><g><path d="M22.35,143c-21.9,5.72-14.69,30.45,7.21,24.74"/><path d="M22.17,143.05c21.9-5.72,29.12,19.02,7.21,24.74"/><rect x="36.91" y="101.08" width="5.73" height="53.36"/><path d="M74.33,134c21.9-5.72,29.12,19.02,7.21,24.74"/><rect x="89.07" y="89.4" width="5.73" height="55.51"/><polyline points="36.91 100.99 94.8 85.92 94.8 94.23 36.91 108.26"/></g></g><rect class="d" width="204.61" height="204.61"/></g></g></svg>